<svg xmlns="http://www.w3.org/2000/svg" viewBox="0 0 1100 750" font-family="'Segoe UI','Inter',sans-serif">
  <defs><filter id="shadow"><feDropShadow dx="0" dy="2" stdDeviation="4" flood-color="#000" flood-opacity="0.08"/></filter></defs>
  <rect width="1100" height="750" fill="#f8f9fa"/>
  <rect width="1100" height="56" fill="#212529"/>
  <text x="24" y="36" fill="white" font-size="20" font-weight="700">🏥 AI Healthcare</text>
  <text x="40" y="96" fill="#dc3545" font-size="22" font-weight="700">Appointment Management</text>
  <!-- Book Appointment Form -->
  <rect x="40" y="116" rx="10" ry="10" width="700" height="140" fill="white" filter="url(#shadow)"/>
  <rect x="60" y="136" rx="6" ry="6" width="320" height="42" fill="#f8f9fa" stroke="#dee2e6" stroke-width="1"/>
  <text x="76" y="162" fill="#6c757d" font-size="12">Patient ID</text>
  <rect x="400" y="136" rx="6" ry="6" width="320" height="42" fill="#f8f9fa" stroke="#dee2e6" stroke-width="1"/>
  <text x="416" y="162" fill="#6c757d" font-size="12">Doctor ID</text>
  <rect x="60" y="190" rx="6" ry="6" width="320" height="42" fill="#f8f9fa" stroke="#dee2e6" stroke-width="1"/>
  <text x="76" y="216" fill="#6c757d" font-size="12">Appointment Date</text>
  <rect x="400" y="190" rx="6" ry="6" width="320" height="42" fill="#f8f9fa" stroke="#dee2e6" stroke-width="1"/>
  <text x="416" y="216" fill="#6c757d" font-size="12">Reason</text>
  <rect x="60" y="236" rx="6" ry="6" width="150" height="34" fill="#dc3545"/>
  <text x="135" y="258" fill="white" font-size="13" text-anchor="middle" font-weight="500">Book Appointment</text>
  <!-- Appointments List -->
  <rect x="40" y="280" rx="10" ry="10" width="1020" height="300" fill="white" filter="url(#shadow)"/>
  <text x="60" y="312" fill="#212529" font-size="16" font-weight="600">Appointments List</text>
  <rect x="60" y="326" rx="4" ry="4" width="980" height="36" fill="#212529"/>
  <text x="80" y="350" fill="white" font-size="12" font-weight="600">ID</text>
  <text x="170" y="350" fill="white" font-size="12" font-weight="600">Patient</text>
  <text x="300" y="350" fill="white" font-size="12" font-weight="600">Doctor</text>
  <text x="440" y="350" fill="white" font-size="12" font-weight="600">Date</text>
  <text x="590" y="350" fill="white" font-size="12" font-weight="600">Status</text>
  <text x="710" y="350" fill="white" font-size="12" font-weight="600">Reason</text>
  <text x="880" y="350" fill="white" font-size="12" font-weight="600">Actions</text>
  <!-- Row 1 -->
  <rect x="60" y="362" rx="4" ry="4" width="980" height="36" fill="rgba(0,0,0,0.02)"/>
  <text x="80" y="386" fill="#212529" font-size="12">1</text>
  <text x="170" y="386" fill="#212529" font-size="12">Rahul Sharma</text>
  <text x="300" y="386" fill="#212529" font-size="12">Dr. Meera Nair</text>
  <text x="440" y="386" fill="#212529" font-size="12">Jun 20, 2026</text>
  <rect x="590" y="374" rx="10" ry="10" width="60" height="20" fill="#198754"/><text x="620" y="389" fill="white" font-size="10" text-anchor="middle" font-weight="500">Confirmed</text>
  <text x="710" y="386" fill="#212529" font-size="12">Chest Pain</text>
  <rect x="880" y="370" rx="4" ry="4" width="60" height="24" fill="#dc3545"/><text x="910" y="387" fill="white" font-size="10" text-anchor="middle">Delete</text>
  <!-- Row 2 -->
  <rect x="60" y="398" rx="4" ry="4" width="980" height="36" fill="rgba(0,0,0,0.02)"/>
  <text x="80" y="422" fill="#212529" font-size="12">2</text>
  <text x="170" y="422" fill="#212529" font-size="12">Priya Patel</text>
  <text x="300" y="422" fill="#212529" font-size="12">Dr. Rajesh Verma</text>
  <text x="440" y="422" fill="#212529" font-size="12">Jun 22, 2026</text>
  <rect x="590" y="410" rx="10" ry="10" width="60" height="20" fill="#ffc107"/><text x="620" y="425" fill="#212529" font-size="10" text-anchor="middle" font-weight="500">Pending</text>
  <text x="710" y="422" fill="#212529" font-size="12">Headaches</text>
  <rect x="880" y="406" rx="4" ry="4" width="60" height="24" fill="#dc3545"/><text x="910" y="423" fill="white" font-size="10" text-anchor="middle">Delete</text>
  <!-- Row 3 -->
  <rect x="60" y="434" rx="4" ry="4" width="980" height="36" fill="rgba(0,0,0,0.02)"/>
  <text x="80" y="458" fill="#212529" font-size="12">3</text>
  <text x="170" y="458" fill="#212529" font-size="12">Amit Singh</text>
  <text x="300" y="458" fill="#212529" font-size="12">Dr. Suresh Patel</text>
  <text x="440" y="458" fill="#212529" font-size="12">Jun 25, 2026</text>
  <rect x="590" y="446" rx="10" ry="10" width="60" height="20" fill="#0dcaf0"/><text x="620" y="461" fill="white" font-size="10" text-anchor="middle" font-weight="500">Scheduled</text>
  <text x="710" y="458" fill="#212529" font-size="12">Back Pain</text>
  <rect x="880" y="442" rx="4" ry="4" width="60" height="24" fill="#dc3545"/><text x="910" y="459" fill="white" font-size="10" text-anchor="middle">Delete</text>
  <!-- Row 4 -->
  <rect x="60" y="470" rx="4" ry="4" width="980" height="36" fill="rgba(0,0,0,0.02)"/>
  <text x="80" y="494" fill="#212529" font-size="12">4</text>
  <text x="170" y="494" fill="#212529" font-size="12">Sneha Gupta</text>
  <text x="300" y="494" fill="#212529" font-size="12">Dr. Ananya Reddy</text>
  <text x="440" y="494" fill="#212529" font-size="12">Jun 18, 2026</text>
  <rect x="590" y="482" rx="10" ry="10" width="60" height="20" fill="#198754"/><text x="620" y="497" fill="white" font-size="10" text-anchor="middle" font-weight="500">Completed</text>
  <text x="710" y="494" fill="#212529" font-size="12">Fever</text>
  <rect x="880" y="478" rx="4" ry="4" width="60" height="24" fill="#dc3545"/><text x="910" y="495" fill="white" font-size="10" text-anchor="middle">Delete</text>
  <!-- Row 5 -->
  <rect x="60" y="506" rx="4" ry="4" width="980" height="36" fill="rgba(0,0,0,0.02)"/>
  <text x="80" y="530" fill="#212529" font-size="12">5</text>
  <text x="170" y="530" fill="#212529" font-size="12">Vikram Reddy</text>
  <text x="300" y="530" fill="#212529" font-size="12">Dr. Meera Nair</text>
  <text x="440" y="530" fill="#212529" font-size="12">Jun 28, 2026</text>
  <rect x="590" y="518" rx="10" ry="10" width="60" height="20" fill="#ffc107"/><text x="620" y="533" fill="#212529" font-size="10" text-anchor="middle" font-weight="500">Pending</text>
  <text x="710" y="530" fill="#212529" font-size="12">Checkup</text>
  <rect x="880" y="514" rx="4" ry="4" width="60" height="24" fill="#dc3545"/><text x="910" y="531" fill="white" font-size="10" text-anchor="middle">Delete</text>
</svg>
