<svg xmlns="http://www.w3.org/2000/svg" viewBox="0 0 1100 750" font-family="'Segoe UI','Inter',sans-serif">
  <defs><filter id="shadow"><feDropShadow dx="0" dy="2" stdDeviation="4" flood-color="#000" flood-opacity="0.08"/></filter></defs>
  <rect width="1100" height="750" fill="#f8f9fa"/>
  <!-- Navbar -->
  <rect width="1100" height="56" fill="#212529"/>
  <text x="24" y="36" fill="white" font-size="20" font-weight="700">🏥 AI Healthcare</text>
  <rect x="200" y="14" rx="6" ry="6" width="90" height="28" fill="#0d6efd"/><text x="245" y="33" fill="white" font-size="12" text-anchor="middle">Dashboard</text>
  <rect x="294" y="14" rx="6" ry="6" width="78" height="28" fill="rgba(255,255,255,0.1)"/><text x="333" y="33" fill="rgba(255,255,255,0.7)" font-size="12" text-anchor="middle">Patients</text>
  <rect x="376" y="14" rx="6" ry="6" width="74" height="28" fill="rgba(255,255,255,0.1)"/><text x="413" y="33" fill="rgba(255,255,255,0.7)" font-size="12" text-anchor="middle">Doctors</text>
  <rect x="454" y="14" rx="6" ry="6" width="102" height="28" fill="rgba(255,255,255,0.1)"/><text x="505" y="33" fill="rgba(255,255,255,0.7)" font-size="12" text-anchor="middle">Appointments</text>
  <rect x="560" y="14" rx="6" ry="6" width="80" height="28" fill="rgba(255,255,255,0.1)"/><text x="600" y="33" fill="rgba(255,255,255,0.7)" font-size="12" text-anchor="middle">AI Tools ▼</text>
  <circle cx="1050" cy="28" r="14" fill="#0d6efd"/><text x="1050" y="33" fill="white" font-size="11" text-anchor="middle">AK</text>

  <!-- Hero Section -->
  <rect y="56" width="1100" height="120" fill="#e9ecef"/>
  <text x="550" y="96" fill="#212529" font-size="26" font-weight="700" text-anchor="middle">🤖 AI Healthcare Platform</text>
  <text x="550" y="122" fill="#6c757d" font-size="14" text-anchor="middle">Enterprise Healthcare Management System powered by AI, Microservices and Cloud.</text>
  <rect x="400" y="140" rx="6" ry="6" width="140" height="34" fill="#0d6efd"/><text x="470" y="162" fill="white" font-size="13" text-anchor="middle" font-weight="500">Manage Patients</text>
  <rect x="560" y="140" rx="6" ry="6" width="140" height="34" fill="#198754"/><text x="630" y="162" fill="white" font-size="13" text-anchor="middle" font-weight="500">Ask Medical AI</text>

  <!-- Quick Access Cards -->
  <text x="40" y="218" font-size="18" font-weight="700" fill="#212529">Quick Access</text>
  <rect x="40" y="236" rx="10" ry="10" width="245" height="100" fill="white" filter="url(#shadow)"/>
  <text x="60" y="272" font-size="28">👨‍⚕️</text><text x="100" y="276" fill="#212529" font-size="15" font-weight="600">Add Patient</text><rect x="60" y="290" rx="6" ry="6" width="80" height="30" fill="#0d6efd"/><text x="100" y="310" fill="white" font-size="12" text-anchor="middle" font-weight="500">Open</text>
  <rect x="305" y="236" rx="10" ry="10" width="245" height="100" fill="white" filter="url(#shadow)"/>
  <text x="325" y="272" font-size="28">📅</text><text x="365" y="276" fill="#212529" font-size="15" font-weight="600">Appointments</text><rect x="325" y="290" rx="6" ry="6" width="80" height="30" fill="#dc3545"/><text x="365" y="310" fill="white" font-size="12" text-anchor="middle" font-weight="500">Open</text>
  <rect x="570" y="236" rx="10" ry="10" width="245" height="100" fill="white" filter="url(#shadow)"/>
  <text x="590" y="272" font-size="28">📄</text><text x="630" y="276" fill="#212529" font-size="15" font-weight="600">Files</text><rect x="590" y="290" rx="6" ry="6" width="80" height="30" fill="#198754"/><text x="630" y="310" fill="white" font-size="12" text-anchor="middle" font-weight="500">Open</text>
  <rect x="835" y="236" rx="10" ry="10" width="245" height="100" fill="white" filter="url(#shadow)"/>
  <text x="855" y="272" font-size="28">🤖</text><text x="895" y="276" fill="#212529" font-size="15" font-weight="600">Medical AI</text><rect x="855" y="290" rx="6" ry="6" width="80" height="30" fill="#212529"/><text x="895" y="310" fill="white" font-size="12" text-anchor="middle" font-weight="500">Open</text>

  <!-- Stats -->
  <text x="40" y="380" font-size="18" font-weight="700" fill="#212529">📊 Healthcare Overview</text>
  <rect x="40" y="396" rx="10" ry="10" width="245" height="90" fill="white" filter="url(#shadow)"/>
  <text x="60" y="432" font-size="24">👨‍⚕️</text><text x="94" y="428" fill="#6c757d" font-size="12">Total Patients</text><text x="94" y="454" fill="#212529" font-size="24" font-weight="700">1,284</text>
  <rect x="305" y="396" rx="10" ry="10" width="245" height="90" fill="white" filter="url(#shadow)"/>
  <text x="325" y="432" font-size="24">🩺</text><text x="358" y="428" fill="#6c757d" font-size="12">Total Doctors</text><text x="358" y="454" fill="#212529" font-size="24" font-weight="700">48</text>
  <rect x="570" y="396" rx="10" ry="10" width="245" height="90" fill="white" filter="url(#shadow)"/>
  <text x="590" y="432" font-size="24">📅</text><text x="624" y="428" fill="#6c757d" font-size="12">Appointments</text><text x="624" y="454" fill="#212529" font-size="24" font-weight="700">356</text>
  <rect x="835" y="396" rx="10" ry="10" width="245" height="90" fill="white" filter="url(#shadow)"/>
  <text x="855" y="432" font-size="24">💊</text><text x="888" y="428" fill="#6c757d" font-size="12">Prescriptions</text><text x="888" y="454" fill="#212529" font-size="24" font-weight="700">892</text>

  <!-- Management Modules -->
  <text x="40" y="530" font-size="18" font-weight="700" fill="#212529">🏥 Healthcare Modules</text>
  <rect x="40" y="546" rx="10" ry="10" width="245" height="80" fill="white" filter="url(#shadow)"/>
  <text x="60" y="582" font-size="24">📄</text><text x="94" y="580" fill="#212529" font-size="14" font-weight="600">Medical Records</text><rect x="60" y="596" rx="6" ry="6" width="70" height="26" fill="#0dcaf0"/><text x="95" y="614" fill="white" font-size="11" text-anchor="middle" font-weight="500">Open</text>
  <rect x="305" y="546" rx="10" ry="10" width="245" height="80" fill="white" filter="url(#shadow)"/>
  <text x="325" y="582" font-size="24">🧪</text><text x="358" y="580" fill="#212529" font-size="14" font-weight="600">Labs</text><rect x="325" y="596" rx="6" ry="6" width="70" height="26" fill="#dc3545"/><text x="360" y="614" fill="white" font-size="11" text-anchor="middle" font-weight="500">Open</text>
  <rect x="570" y="546" rx="10" ry="10" width="245" height="80" fill="white" filter="url(#shadow)"/>
  <text x="590" y="582" font-size="24">💳</text><text x="624" y="580" fill="#212529" font-size="14" font-weight="600">Payments</text><rect x="590" y="596" rx="6" ry="6" width="70" height="26" fill="#198754"/><text x="625" y="614" fill="white" font-size="11" text-anchor="middle" font-weight="500">Open</text>
  <rect x="835" y="546" rx="10" ry="10" width="245" height="80" fill="white" filter="url(#shadow)"/>
  <text x="855" y="582" font-size="24">📁</text><text x="888" y="580" fill="#212529" font-size="14" font-weight="600">Files</text><rect x="855" y="596" rx="6" ry="6" width="70" height="26" fill="#0d6efd"/><text x="890" y="614" fill="white" font-size="11" text-anchor="middle" font-weight="500">Open</text>

  <!-- AI Tools -->
  <text x="40" y="670" font-size="18" font-weight="700" fill="#212529">🤖 AI Healthcare Tools</text>
  <rect x="40" y="686" rx="10" ry="10" width="340" height="50" fill="white" filter="url(#shadow)"/>
  <text x="60" y="716" font-size="16">🤖 AI Checker</text><rect x="260" y="694" rx="6" ry="6" width="100" height="30" fill="#212529"/><text x="310" y="714" fill="white" font-size="11" text-anchor="middle">Open</text>
  <rect x="400" y="686" rx="10" ry="10" width="340" height="50" fill="white" filter="url(#shadow)"/>
  <text x="420" y="716" font-size="16">📄 AI Summary</text><rect x="620" y="694" rx="6" ry="6" width="100" height="30" fill="#0d6efd"/><text x="670" y="714" fill="white" font-size="11" text-anchor="middle">Open</text>
  <rect x="760" y="686" rx="10" ry="10" width="300" height="50" fill="white" filter="url(#shadow)"/>
  <text x="780" y="716" font-size="16">💊 Prescription Analyzer</text><rect x="940" y="694" rx="6" ry="6" width="100" height="30" fill="#198754"/><text x="990" y="714" fill="white" font-size="11" text-anchor="middle">Open</text>
</svg>
