<svg xmlns="http://www.w3.org/2000/svg" viewBox="0 0 1100 750" font-family="'Segoe UI','Inter',sans-serif">
  <defs><filter id="shadow"><feDropShadow dx="0" dy="2" stdDeviation="4" flood-color="#000" flood-opacity="0.08"/></filter></defs>
  <rect width="1100" height="750" fill="#f8f9fa"/>
  <rect width="1100" height="56" fill="#212529"/>
  <text x="24" y="36" fill="white" font-size="20" font-weight="700">🏥 AI Healthcare</text>
  <text x="40" y="96" fill="#198754" font-size="22" font-weight="700">Doctor Management</text>
  <!-- Add Doctor Form -->
  <rect x="40" y="116" rx="10" ry="10" width="700" height="140" fill="white" filter="url(#shadow)"/>
  <rect x="60" y="136" rx="6" ry="6" width="320" height="42" fill="#f8f9fa" stroke="#dee2e6" stroke-width="1"/>
  <text x="76" y="162" fill="#6c757d" font-size="12">Doctor Name</text>
  <rect x="400" y="136" rx="6" ry="6" width="320" height="42" fill="#f8f9fa" stroke="#dee2e6" stroke-width="1"/>
  <text x="416" y="162" fill="#6c757d" font-size="12">Specialization</text>
  <rect x="60" y="190" rx="6" ry="6" width="320" height="42" fill="#f8f9fa" stroke="#dee2e6" stroke-width="1"/>
  <text x="76" y="216" fill="#6c757d" font-size="12">Experience (years)</text>
  <rect x="400" y="190" rx="6" ry="6" width="320" height="42" fill="#f8f9fa" stroke="#dee2e6" stroke-width="1"/>
  <text x="416" y="216" fill="#6c757d" font-size="12">Email</text>
  <rect x="60" y="236" rx="6" ry="6" width="120" height="34" fill="#198754"/>
  <text x="120" y="258" fill="white" font-size="13" text-anchor="middle" font-weight="500">Add Doctor</text>
  <!-- Doctor List -->
  <rect x="40" y="280" rx="10" ry="10" width="1020" height="280" fill="white" filter="url(#shadow)"/>
  <text x="60" y="312" fill="#212529" font-size="16" font-weight="600">Doctors List</text>
  <rect x="60" y="326" rx="4" ry="4" width="980" height="36" fill="#212529"/>
  <text x="80" y="350" fill="white" font-size="12" font-weight="600">ID</text>
  <text x="160" y="350" fill="white" font-size="12" font-weight="600">Name</text>
  <text x="330" y="350" fill="white" font-size="12" font-weight="600">Specialization</text>
  <text x="530" y="350" fill="white" font-size="12" font-weight="600">Experience</text>
  <text x="660" y="350" fill="white" font-size="12" font-weight="600">Email</text>
  <text x="860" y="350" fill="white" font-size="12" font-weight="600">Actions</text>
  <!-- Row 1 -->
  <rect x="60" y="362" rx="4" ry="4" width="980" height="36" fill="rgba(0,0,0,0.02)"/>
  <text x="80" y="386" fill="#212529" font-size="12">1</text>
  <text x="160" y="386" fill="#212529" font-size="12">Dr. Meera Nair</text>
  <text x="330" y="386" fill="#212529" font-size="12">Cardiology</text>
  <text x="530" y="386" fill="#212529" font-size="12">15 years</text>
  <text x="660" y="386" fill="#212529" font-size="12">meera@hospital.com</text>
  <rect x="860" y="368" rx="4" ry="4" width="50" height="24" fill="#0d6efd"/><text x="885" y="385" fill="white" font-size="10" text-anchor="middle">Edit</text>
  <rect x="920" y="368" rx="4" ry="4" width="60" height="24" fill="#dc3545"/><text x="950" y="385" fill="white" font-size="10" text-anchor="middle">Delete</text>
  <!-- Row 2 -->
  <rect x="60" y="398" rx="4" ry="4" width="980" height="36" fill="rgba(0,0,0,0.02)"/>
  <text x="80" y="422" fill="#212529" font-size="12">2</text>
  <text x="160" y="422" fill="#212529" font-size="12">Dr. Rajesh Verma</text>
  <text x="330" y="422" fill="#212529" font-size="12">Neurology</text>
  <text x="530" y="422" fill="#212529" font-size="12">20 years</text>
  <text x="660" y="422" fill="#212529" font-size="12">rajesh@hospital.com</text>
  <rect x="860" y="404" rx="4" ry="4" width="50" height="24" fill="#0d6efd"/><text x="885" y="421" fill="white" font-size="10" text-anchor="middle">Edit</text>
  <rect x="920" y="404" rx="4" ry="4" width="60" height="24" fill="#dc3545"/><text x="950" y="421" fill="white" font-size="10" text-anchor="middle">Delete</text>
  <!-- Row 3 -->
  <rect x="60" y="434" rx="4" ry="4" width="980" height="36" fill="rgba(0,0,0,0.02)"/>
  <text x="80" y="458" fill="#212529" font-size="12">3</text>
  <text x="160" y="458" fill="#212529" font-size="12">Dr. Ananya Reddy</text>
  <text x="330" y="458" fill="#212529" font-size="12">Pediatrics</text>
  <text x="530" y="458" fill="#212529" font-size="12">10 years</text>
  <text x="660" y="458" fill="#212529" font-size="12">ananya@hospital.com</text>
  <rect x="860" y="440" rx="4" ry="4" width="50" height="24" fill="#0d6efd"/><text x="885" y="457" fill="white" font-size="10" text-anchor="middle">Edit</text>
  <rect x="920" y="440" rx="4" ry="4" width="60" height="24" fill="#dc3545"/><text x="950" y="457" fill="white" font-size="10" text-anchor="middle">Delete</text>
  <!-- Row 4 -->
  <rect x="60" y="470" rx="4" ry="4" width="980" height="36" fill="rgba(0,0,0,0.02)"/>
  <text x="80" y="494" fill="#212529" font-size="12">4</text>
  <text x="160" y="494" fill="#212529" font-size="12">Dr. Suresh Patel</text>
  <text x="330" y="494" fill="#212529" font-size="12">Orthopedics</text>
  <text x="530" y="494" fill="#212529" font-size="12">12 years</text>
  <text x="660" y="494" fill="#212529" font-size="12">suresh@hospital.com</text>
  <rect x="860" y="476" rx="4" ry="4" width="50" height="24" fill="#0d6efd"/><text x="885" y="493" fill="white" font-size="10" text-anchor="middle">Edit</text>
  <rect x="920" y="476" rx="4" ry="4" width="60" height="24" fill="#dc3545"/><text x="950" y="493" fill="white" font-size="10" text-anchor="middle">Delete</text>
  <!-- Row 5 -->
  <rect x="60" y="506" rx="4" ry="4" width="980" height="36" fill="rgba(0,0,0,0.02)"/>
  <text x="80" y="530" fill="#212529" font-size="12">5</text>
  <text x="160" y="530" fill="#212529" font-size="12">Dr. Lakshmi Iyer</text>
  <text x="330" y="530" fill="#212529" font-size="12">Dermatology</text>
  <text x="530" y="530" fill="#212529" font-size="12">8 years</text>
  <text x="660" y="530" fill="#212529" font-size="12">lakshmi@hospital.com</text>
  <rect x="860" y="512" rx="4" ry="4" width="50" height="24" fill="#0d6efd"/><text x="885" y="529" fill="white" font-size="10" text-anchor="middle">Edit</text>
  <rect x="920" y="512" rx="4" ry="4" width="60" height="24" fill="#dc3545"/><text x="950" y="529" fill="white" font-size="10" text-anchor="middle">Delete</text>
</svg>
