<svg xmlns="http://www.w3.org/2000/svg" viewBox="0 0 1100 750" font-family="'Segoe UI','Inter',sans-serif">
  <defs>
    <linearGradient id="heroGrad" x1="0%" y1="0%" x2="100%" y2="100%">
      <stop offset="0%" stop-color="#0d6efd"/><stop offset="100%" stop-color="#0a58ca"/>
    </linearGradient>
    <linearGradient id="sucGrad" x1="0%" y1="0%" x2="100%" y2="100%">
      <stop offset="0%" stop-color="#198754"/><stop offset="100%" stop-color="#157347"/>
    </linearGradient>
    <filter id="shadow"><feDropShadow dx="0" dy="4" stdDeviation="8" flood-color="#000" flood-opacity="0.1"/></filter>
  </defs>
  <rect width="1100" height="750" fill="#f8f9fa"/>

  <!-- Navbar -->
  <rect width="1100" height="56" fill="#212529"/>
  <text x="24" y="36" fill="white" font-size="20" font-weight="700">🏥 MediAI Nexus</text>
  <rect x="900" y="14" rx="4" ry="4" width="60" height="28" fill="#0d6efd"/><text x="930" y="33" fill="white" font-size="12" text-anchor="middle">Dashboard</text>
  <rect x="968" y="14" rx="4" ry="4" width="60" height="28" fill="#198754"/><text x="998" y="33" fill="white" font-size="12" text-anchor="middle">Profile</text>
  <rect x="1036" y="14" rx="4" ry="4" width="50" height="28" fill="#dc3545"/><text x="1061" y="33" fill="white" font-size="12" text-anchor="middle">Logout</text>

  <!-- Sidebar -->
  <rect x="0" y="56" width="200" height="694" fill="#1e293b"/>
  <text x="100" y="90" fill="#94a3b8" font-size="11" font-weight="600" text-anchor="middle">NAVIGATION</text>
  <rect x="10" y="104" rx="6" ry="6" width="180" height="36" fill="#334155"/><text x="100" y="126" fill="white" font-size="13" text-anchor="middle">📊 Dashboard</text>
  <rect x="10" y="148" rx="6" ry="6" width="180" height="36" fill="#334155"/><text x="100" y="170" fill="white" font-size="13" text-anchor="middle">👤 Patients</text>
  <rect x="10" y="192" rx="6" ry="6" width="180" height="36" fill="#334155"/><text x="100" y="214" fill="white" font-size="13" text-anchor="middle">👨‍⚕️ Doctors</text>
  <rect x="10" y="236" rx="6" ry="6" width="180" height="36" fill="#334155"/><text x="100" y="258" fill="white" font-size="13" text-anchor="middle">📅 Appointments</text>
  <rect x="10" y="280" rx="6" ry="6" width="180" height="36" fill="#334155"/><text x="100" y="302" fill="white" font-size="13" text-anchor="middle">💊 Prescriptions</text>
  <rect x="10" y="324" rx="6" ry="6" width="180" height="36" fill="#334155"/><text x="100" y="346" fill="white" font-size="13" text-anchor="middle">📋 Medical Records</text>
  <rect x="10" y="368" rx="6" ry="6" width="180" height="36" fill="#334155"/><text x="100" y="390" fill="white" font-size="13" text-anchor="middle">🧪 Labs</text>
  <rect x="10" y="412" rx="6" ry="6" width="180" height="36" fill="#0d6efd"/><text x="100" y="434" fill="white" font-size="13" text-anchor="middle">📁 Files</text>
  <rect x="10" y="456" rx="6" ry="6" width="180" height="36" fill="#334155"/><text x="100" y="478" fill="white" font-size="13" text-anchor="middle">💳 Payments</text>
  <text x="100" y="520" fill="#94a3b8" font-size="11" font-weight="600" text-anchor="middle">AI TOOLS</text>
  <rect x="10" y="534" rx="6" ry="6" width="180" height="36" fill="#334155"/><text x="100" y="556" fill="white" font-size="13" text-anchor="middle">🔍 AI Checker</text>
  <rect x="10" y="578" rx="6" ry="6" width="180" height="36" fill="#334155"/><text x="100" y="600" fill="white" font-size="13" text-anchor="middle">🤖 AI Chat</text>

  <!-- Main content -->
  <rect x="220" y="72" rx="10" ry="10" width="860" height="55" fill="white" filter="url(#shadow)"/>
  <text x="240" y="96" fill="#1e293b" font-size="20" font-weight="700">📁 File Management</text>
  <text x="240" y="116" fill="#64748b" font-size="12">Upload, store, and manage medical documents and files</text>

  <rect x="940" y="80" rx="8" ry="8" width="125" height="36" fill="url(#sucGrad)"/>
  <text x="1002" y="103" fill="white" font-size="13" font-weight="600" text-anchor="middle">+ Upload File</text>

  <!-- Upload area -->
  <rect x="220" y="140" rx="10" ry="10" width="860" height="100" fill="#f8fafc" stroke="#cbd5e1" stroke-width="2" stroke-dasharray="8,4"/>
  <text x="650" y="178" fill="#475569" font-size="14" font-weight="600" text-anchor="middle">📤 Drag & drop files here or click to upload</text>
  <text x="650" y="200" fill="#94a3b8" font-size="12" text-anchor="middle">Supports PDF, JPG, PNG, DOCX (max 25MB)</text>
  <rect x="570" y="210" rx="6" ry="6" width="160" height="26" fill="url(#heroGrad)"/>
  <text x="650" y="228" fill="white" font-size="12" font-weight="600" text-anchor="middle">Browse Files</text>

  <!-- File list -->
  <rect x="220" y="255" rx="10" ry="10" width="860" height="445" fill="white" filter="url(#shadow)"/>

  <rect x="235" y="270" rx="6" ry="6" width="830" height="36" fill="#f8fafc"/>
  <text x="260" y="292" fill="#475569" font-size="12" font-weight="600">Name</text>
  <text x="460" y="292" fill="#475569" font-size="12" font-weight="600">Type</text>
  <text x="600" y="292" fill="#475569" font-size="12" font-weight="600">Patient</text>
  <text x="740" y="292" fill="#475569" font-size="12" font-weight="600">Size</text>
  <text x="840" y="292" fill="#475569" font-size="12" font-weight="600">Date</text>
  <text x="980" y="292" fill="#475569" font-size="12" font-weight="600">Actions</text>

  <!-- Row 1 -->
  <line x1="240" y1="315" x2="1060" y2="315" stroke="#f1f5f9" stroke-width="1"/>
  <text x="260" y="337" fill="#1e293b" font-size="12">📄 blood_report_jun15.pdf</text>
  <text x="460" y="337" fill="#64748b" font-size="12">PDF</text>
  <text x="600" y="337" fill="#1e293b" font-size="12">John Smith</text>
  <text x="740" y="337" fill="#64748b" font-size="12">2.4 MB</text>
  <text x="840" y="337" fill="#64748b" font-size="12">2025-06-15</text>
  <rect x="970" y="325" rx="4" ry="4" width="30" height="22" fill="#0d6efd"/>
  <text x="985" y="340" fill="white" font-size="9" text-anchor="middle">📥</text>
  <rect x="1005" y="325" rx="4" ry="4" width="30" height="22" fill="#dc3545"/>
  <text x="1020" y="340" fill="white" font-size="9" text-anchor="middle">🗑</text>

  <!-- Row 2 -->
  <line x1="240" y1="355" x2="1060" y2="355" stroke="#f1f5f9" stroke-width="1"/>
  <text x="260" y="377" fill="#1e293b" font-size="12">📄 chest_xray_front.jpg</text>
  <text x="460" y="377" fill="#64748b" font-size="12">JPG</text>
  <text x="600" y="377" fill="#1e293b" font-size="12">Emily Davis</text>
  <text x="740" y="377" fill="#64748b" font-size="12">5.1 MB</text>
  <text x="840" y="377" fill="#64748b" font-size="12">2025-06-14</text>
  <rect x="970" y="365" rx="4" ry="4" width="30" height="22" fill="#0d6efd"/>
  <text x="985" y="380" fill="white" font-size="9" text-anchor="middle">📥</text>
  <rect x="1005" y="365" rx="4" ry="4" width="30" height="22" fill="#dc3545"/>
  <text x="1020" y="380" fill="white" font-size="9" text-anchor="middle">🗑</text>

  <!-- Row 3 -->
  <line x1="240" y1="395" x2="1060" y2="395" stroke="#f1f5f9" stroke-width="1"/>
  <text x="260" y="417" fill="#1e293b" font-size="12">📄 cardiology_referral.docx</text>
  <text x="460" y="417" fill="#64748b" font-size="12">DOCX</text>
  <text x="600" y="417" fill="#1e293b" font-size="12">Robert Wilson</text>
  <text x="740" y="417" fill="#64748b" font-size="12">1.2 MB</text>
  <text x="840" y="417" fill="#64748b" font-size="12">2025-06-13</text>
  <rect x="970" y="405" rx="4" ry="4" width="30" height="22" fill="#0d6efd"/>
  <text x="985" y="420" fill="white" font-size="9" text-anchor="middle">📥</text>
  <rect x="1005" y="405" rx="4" ry="4" width="30" height="22" fill="#dc3545"/>
  <text x="1020" y="420" fill="white" font-size="9" text-anchor="middle">🗑</text>

  <!-- Row 4 -->
  <line x1="240" y1="435" x2="1060" y2="435" stroke="#f1f5f9" stroke-width="1"/>
  <text x="260" y="457" fill="#1e293b" font-size="12">📄 spirometry_results.pdf</text>
  <text x="460" y="457" fill="#64748b" font-size="12">PDF</text>
  <text x="600" y="457" fill="#1e293b" font-size="12">Sarah Johnson</text>
  <text x="740" y="457" fill="#64748b" font-size="12">0.8 MB</text>
  <text x="840" y="457" fill="#64748b" font-size="12">2025-06-12</text>
  <rect x="970" y="445" rx="4" ry="4" width="30" height="22" fill="#0d6efd"/>
  <text x="985" y="460" fill="white" font-size="9" text-anchor="middle">📥</text>
  <rect x="1005" y="445" rx="4" ry="4" width="30" height="22" fill="#dc3545"/>
  <text x="1020" y="460" fill="white" font-size="9" text-anchor="middle">🗑</text>

  <!-- Row 5 -->
  <line x1="240" y1="475" x2="1060" y2="475" stroke="#f1f5f9" stroke-width="1"/>
  <text x="260" y="497" fill="#1e293b" font-size="12">📄 mental_health_assessment.pdf</text>
  <text x="460" y="497" fill="#64748b" font-size="12">PDF</text>
  <text x="600" y="497" fill="#1e293b" font-size="12">Michael Brown</text>
  <text x="740" y="497" fill="#64748b" font-size="12">1.6 MB</text>
  <text x="840" y="497" fill="#64748b" font-size="12">2025-06-11</text>
  <rect x="970" y="485" rx="4" ry="4" width="30" height="22" fill="#0d6efd"/>
  <text x="985" y="500" fill="white" font-size="9" text-anchor="middle">📥</text>
  <rect x="1005" y="485" rx="4" ry="4" width="30" height="22" fill="#dc3545"/>
  <text x="1020" y="500" fill="white" font-size="9" text-anchor="middle">🗑</text>

  <!-- Storage stats -->
  <rect x="240" y="520" rx="6" ry="6" width="820" height="50" fill="#f8fafc" stroke="#e2e8f0" stroke-width="1"/>
  <text x="260" y="542" fill="#475569" font-size="12" font-weight="600">Storage Used</text>
  <rect x="380" y="534" rx="4" ry="4" width="400" height="10" fill="#e2e8f0"/>
  <rect x="380" y="534" rx="4" ry="4" width="160" height="10" fill="#0d6efd"/>
  <text x="800" y="542" fill="#1e293b" font-size="12" font-weight="600">11.1 MB / 100 MB used</text>
  <text x="800" y="555" fill="#64748b" font-size="10">15 files total</text>

  <!-- Pagination -->
  <rect x="500" y="585" rx="4" ry="4" width="30" height="28" fill="#0d6efd"/>
  <text x="515" y="604" fill="white" font-size="12" text-anchor="middle">1</text>
  <rect x="538" y="585" rx="4" ry="4" width="30" height="28" fill="#f1f5f9"/>
  <text x="553" y="604" fill="#1e293b" font-size="12" text-anchor="middle">2</text>
  <rect x="576" y="585" rx="4" ry="4" width="30" height="28" fill="#f1f5f9"/>
  <text x="591" y="604" fill="#1e293b" font-size="12" text-anchor="middle">3</text>
  <rect x="614" y="585" rx="4" ry="4" width="60" height="28" fill="#f1f5f9"/>
  <text x="644" y="604" fill="#1e293b" font-size="12" text-anchor="middle">Next →</text>
</svg>