<svg xmlns="http://www.w3.org/2000/svg" viewBox="0 0 1100 750" font-family="'Segoe UI','Inter',sans-serif">
  <defs>
    <linearGradient id="heroGrad" x1="0%" y1="0%" x2="100%" y2="100%">
      <stop offset="0%" stop-color="#0d6efd"/><stop offset="100%" stop-color="#0a58ca"/>
    </linearGradient>
    <linearGradient id="sucGrad" x1="0%" y1="0%" x2="100%" y2="100%">
      <stop offset="0%" stop-color="#198754"/><stop offset="100%" stop-color="#157347"/>
    </linearGradient>
    <filter id="shadow"><feDropShadow dx="0" dy="4" stdDeviation="8" flood-color="#000" flood-opacity="0.1"/></filter>
  </defs>
  <rect width="1100" height="750" fill="#f8f9fa"/>

  <!-- Navbar -->
  <rect width="1100" height="56" fill="#212529"/>
  <text x="24" y="36" fill="white" font-size="20" font-weight="700">🏥 MediAI Nexus</text>
  <rect x="900" y="14" rx="4" ry="4" width="60" height="28" fill="#0d6efd"/><text x="930" y="33" fill="white" font-size="12" text-anchor="middle">Dashboard</text>
  <rect x="968" y="14" rx="4" ry="4" width="60" height="28" fill="#198754"/><text x="998" y="33" fill="white" font-size="12" text-anchor="middle">Profile</text>
  <rect x="1036" y="14" rx="4" ry="4" width="50" height="28" fill="#dc3545"/><text x="1061" y="33" fill="white" font-size="12" text-anchor="middle">Logout</text>

  <!-- Sidebar -->
  <rect x="0" y="56" width="200" height="694" fill="#1e293b"/>
  <text x="100" y="90" fill="#94a3b8" font-size="11" font-weight="600" text-anchor="middle">NAVIGATION</text>
  <rect x="10" y="104" rx="6" ry="6" width="180" height="36" fill="#334155"/><text x="100" y="126" fill="white" font-size="13" text-anchor="middle">📊 Dashboard</text>
  <rect x="10" y="148" rx="6" ry="6" width="180" height="36" fill="#334155"/><text x="100" y="170" fill="white" font-size="13" text-anchor="middle">👤 Patients</text>
  <rect x="10" y="192" rx="6" ry="6" width="180" height="36" fill="#334155"/><text x="100" y="214" fill="white" font-size="13" text-anchor="middle">👨‍⚕️ Doctors</text>
  <rect x="10" y="236" rx="6" ry="6" width="180" height="36" fill="#334155"/><text x="100" y="258" fill="white" font-size="13" text-anchor="middle">📅 Appointments</text>
  <rect x="10" y="280" rx="6" ry="6" width="180" height="36" fill="#334155"/><text x="100" y="302" fill="white" font-size="13" text-anchor="middle">💊 Prescriptions</text>
  <rect x="10" y="324" rx="6" ry="6" width="180" height="36" fill="#334155"/><text x="100" y="346" fill="white" font-size="13" text-anchor="middle">📋 Medical Records</text>
  <rect x="10" y="368" rx="6" ry="6" width="180" height="36" fill="#0d6efd"/><text x="100" y="390" fill="white" font-size="13" text-anchor="middle">🧪 Labs</text>
  <rect x="10" y="412" rx="6" ry="6" width="180" height="36" fill="#334155"/><text x="100" y="434" fill="white" font-size="13" text-anchor="middle">📁 Files</text>
  <rect x="10" y="456" rx="6" ry="6" width="180" height="36" fill="#334155"/><text x="100" y="478" fill="white" font-size="13" text-anchor="middle">💳 Payments</text>
  <text x="100" y="520" fill="#94a3b8" font-size="11" font-weight="600" text-anchor="middle">AI TOOLS</text>
  <rect x="10" y="534" rx="6" ry="6" width="180" height="36" fill="#334155"/><text x="100" y="556" fill="white" font-size="13" text-anchor="middle">🔍 AI Checker</text>
  <rect x="10" y="578" rx="6" ry="6" width="180" height="36" fill="#334155"/><text x="100" y="600" fill="white" font-size="13" text-anchor="middle">🤖 AI Chat</text>

  <!-- Main content -->
  <rect x="220" y="72" rx="10" ry="10" width="860" height="55" fill="white" filter="url(#shadow)"/>
  <text x="240" y="96" fill="#1e293b" font-size="20" font-weight="700">🧪 Laboratory Management</text>
  <text x="240" y="116" fill="#64748b" font-size="12">Manage lab reports, test results, and analysis</text>

  <rect x="940" y="80" rx="8" ry="8" width="125" height="36" fill="url(#sucGrad)"/>
  <text x="1002" y="103" fill="white" font-size="13" font-weight="600" text-anchor="middle">+ New Lab Report</text>

  <!-- Filter tabs -->
  <rect x="220" y="140" rx="8" ry="8" width="860" height="45" fill="white" filter="url(#shadow)"/>
  <rect x="240" y="150" rx="15" ry="15" width="90" height="26" fill="#0d6efd"/>
  <text x="285" y="167" fill="white" font-size="12" text-anchor="middle">All Reports</text>
  <rect x="338" y="150" rx="15" ry="15" width="100" height="26" fill="#f1f5f9"/>
  <text x="388" y="167" fill="#475569" font-size="12" text-anchor="middle">Pending</text>
  <rect x="446" y="150" rx="15" ry="15" width="110" height="26" fill="#f1f5f9"/>
  <text x="501" y="167" fill="#475569" font-size="12" text-anchor="middle">Completed</text>
  <rect x="564" y="150" rx="15" ry="15" width="100" height="26" fill="#f1f5f9"/>
  <text x="614" y="167" fill="#475569" font-size="12" text-anchor="middle">Reviewed</text>

  <!-- Lab Reports Table -->
  <rect x="220" y="200" rx="10" ry="10" width="860" height="500" fill="white" filter="url(#shadow)"/>

  <rect x="235" y="215" rx="6" ry="6" width="830" height="36" fill="#f8fafc"/>
  <text x="260" y="237" fill="#475569" font-size="12" font-weight="600">ID</text>
  <text x="350" y="237" fill="#475569" font-size="12" font-weight="600">Patient</text>
  <text x="490" y="237" fill="#475569" font-size="12" font-weight="600">Test Type</text>
  <text x="630" y="237" fill="#475569" font-size="12" font-weight="600">Date</text>
  <text x="760" y="237" fill="#475569" font-size="12" font-weight="600">Status</text>
  <text x="940" y="237" fill="#475569" font-size="12" font-weight="600">Actions</text>

  <!-- Row 1 -->
  <line x1="240" y1="260" x2="1060" y2="260" stroke="#f1f5f9" stroke-width="1"/>
  <text x="260" y="282" fill="#1e293b" font-size="12">#LAB-001</text>
  <text x="350" y="282" fill="#1e293b" font-size="12">John Smith</text>
  <text x="490" y="282" fill="#1e293b" font-size="12">Complete Blood Count</text>
  <text x="630" y="282" fill="#64748b" font-size="12">2025-06-15</text>
  <rect x="745" y="272" rx="4" ry="4" width="65" height="22" fill="#dbeafe"/>
  <text x="777" y="287" fill="#1e40af" font-size="10" text-anchor="middle">Completed</text>
  <rect x="940" y="272" rx="4" ry="4" width="55" height="22" fill="#0d6efd"/>
  <text x="967" y="287" fill="white" font-size="10" text-anchor="middle">View</text>

  <!-- Row 2 -->
  <line x1="240" y1="300" x2="1060" y2="300" stroke="#f1f5f9" stroke-width="1"/>
  <text x="260" y="322" fill="#1e293b" font-size="12">#LAB-002</text>
  <text x="350" y="322" fill="#1e293b" font-size="12">Emily Davis</text>
  <text x="490" y="322" fill="#1e293b" font-size="12">Lipid Profile</text>
  <text x="630" y="322" fill="#64748b" font-size="12">2025-06-14</text>
  <rect x="745" y="312" rx="4" ry="4" width="65" height="22" fill="#fef3c7"/>
  <text x="777" y="327" fill="#92400e" font-size="10" text-anchor="middle">Pending</text>
  <rect x="940" y="312" rx="4" ry="4" width="55" height="22" fill="#0d6efd"/>
  <text x="967" y="327" fill="white" font-size="10" text-anchor="middle">View</text>

  <!-- Row 3 -->
  <line x1="240" y1="340" x2="1060" y2="340" stroke="#f1f5f9" stroke-width="1"/>
  <text x="260" y="362" fill="#1e293b" font-size="12">#LAB-003</text>
  <text x="350" y="362" fill="#1e293b" font-size="12">Robert Wilson</text>
  <text x="490" y="362" fill="#1e293b" font-size="12">Thyroid Function</text>
  <text x="630" y="362" fill="#64748b" font-size="12">2025-06-13</text>
  <rect x="745" y="352" rx="4" ry="4" width="65" height="22" fill="#dbeafe"/>
  <text x="777" y="367" fill="#1e40af" font-size="10" text-anchor="middle">Completed</text>
  <rect x="940" y="352" rx="4" ry="4" width="55" height="22" fill="#0d6efd"/>
  <text x="967" y="367" fill="white" font-size="10" text-anchor="middle">View</text>

  <!-- Row 4 -->
  <line x1="240" y1="380" x2="1060" y2="380" stroke="#f1f5f9" stroke-width="1"/>
  <text x="260" y="402" fill="#1e293b" font-size="12">#LAB-004</text>
  <text x="350" y="402" fill="#1e293b" font-size="12">Sarah Johnson</text>
  <text x="490" y="402" fill="#1e293b" font-size="12">Urinalysis</text>
  <text x="630" y="402" fill="#64748b" font-size="12">2025-06-12</text>
  <rect x="745" y="392" rx="4" ry="4" width="65" height="22" fill="#dcfce7"/>
  <text x="777" y="407" fill="#166534" font-size="10" text-anchor="middle">Reviewed</text>
  <rect x="940" y="392" rx="4" ry="4" width="55" height="22" fill="#0d6efd"/>
  <text x="967" y="407" fill="white" font-size="10" text-anchor="middle">View</text>

  <!-- Row 5 -->
  <line x1="240" y1="420" x2="1060" y2="420" stroke="#f1f5f9" stroke-width="1"/>
  <text x="260" y="442" fill="#1e293b" font-size="12">#LAB-005</text>
  <text x="350" y="442" fill="#1e293b" font-size="12">Michael Brown</text>
  <text x="490" y="442" fill="#1e293b" font-size="12">Liver Function</text>
  <text x="630" y="442" fill="#64748b" font-size="12">2025-06-11</text>
  <rect x="745" y="432" rx="4" ry="4" width="65" height="22" fill="#fef3c7"/>
  <text x="777" y="447" fill="#92400e" font-size="10" text-anchor="middle">Pending</text>
  <rect x="940" y="432" rx="4" ry="4" width="55" height="22" fill="#0d6efd"/>
  <text x="967" y="447" fill="white" font-size="10" text-anchor="middle">View</text>

  <!-- Stats cards at bottom -->
  <rect x="240" y="480" rx="6" ry="6" width="195" height="60" fill="#eff6ff" stroke="#bfdbfe" stroke-width="1"/>
  <text x="337" y="502" fill="#1e40af" font-size="18" font-weight="700" text-anchor="middle">24</text>
  <text x="337" y="522" fill="#3b82f6" font-size="11" text-anchor="middle">Total Lab Reports</text>

  <rect x="455" y="480" rx="6" ry="6" width="195" height="60" fill="#fef3c7" stroke="#fde68a" stroke-width="1"/>
  <text x="552" y="502" fill="#92400e" font-size="18" font-weight="700" text-anchor="middle">8</text>
  <text x="552" y="522" fill="#d97706" font-size="11" text-anchor="middle">Pending Results</text>

  <rect x="670" y="480" rx="6" ry="6" width="195" height="60" fill="#dcfce7" stroke="#bbf7d0" stroke-width="1"/>
  <text x="767" y="502" fill="#166534" font-size="18" font-weight="700" text-anchor="middle">12</text>
  <text x="767" y="522" fill="#22c55e" font-size="11" text-anchor="middle">Completed</text>

  <rect x="885" y="480" rx="6" ry="6" width="180" height="60" fill="#f0fdf4" stroke="#86efac" stroke-width="1"/>
  <text x="975" y="502" fill="#166534" font-size="18" font-weight="700" text-anchor="middle">4</text>
  <text x="975" y="522" fill="#22c55e" font-size="11" text-anchor="middle">Reviewed</text>
</svg>