<svg xmlns="http://www.w3.org/2000/svg" viewBox="0 0 1100 750" font-family="'Segoe UI','Inter',sans-serif">
  <defs>
    <linearGradient id="heroGrad" x1="0%" y1="0%" x2="100%" y2="100%">
      <stop offset="0%" stop-color="#0d6efd"/><stop offset="100%" stop-color="#0a58ca"/>
    </linearGradient>
    <linearGradient id="sucGrad" x1="0%" y1="0%" x2="100%" y2="100%">
      <stop offset="0%" stop-color="#198754"/><stop offset="100%" stop-color="#157347"/>
    </linearGradient>
    <filter id="shadow"><feDropShadow dx="0" dy="4" stdDeviation="8" flood-color="#000" flood-opacity="0.1"/></filter>
  </defs>
  <rect width="1100" height="750" fill="#f8f9fa"/>

  <!-- Navbar -->
  <rect width="1100" height="56" fill="#212529"/>
  <text x="24" y="36" fill="white" font-size="20" font-weight="700">🏥 MediAI Nexus</text>
  <rect x="900" y="14" rx="4" ry="4" width="60" height="28" fill="#0d6efd"/><text x="930" y="33" fill="white" font-size="12" text-anchor="middle">Dashboard</text>
  <rect x="968" y="14" rx="4" ry="4" width="60" height="28" fill="#198754"/><text x="998" y="33" fill="white" font-size="12" text-anchor="middle">Profile</text>
  <rect x="1036" y="14" rx="4" ry="4" width="50" height="28" fill="#dc3545"/><text x="1061" y="33" fill="white" font-size="12" text-anchor="middle">Logout</text>

  <!-- Sidebar -->
  <rect x="0" y="56" width="200" height="694" fill="#1e293b"/>
  <text x="100" y="90" fill="#94a3b8" font-size="11" font-weight="600" text-anchor="middle">NAVIGATION</text>
  <rect x="10" y="104" rx="6" ry="6" width="180" height="36" fill="#334155"/><text x="100" y="126" fill="white" font-size="13" text-anchor="middle">📊 Dashboard</text>
  <rect x="10" y="148" rx="6" ry="6" width="180" height="36" fill="#334155"/><text x="100" y="170" fill="white" font-size="13" text-anchor="middle">👤 Patients</text>
  <rect x="10" y="192" rx="6" ry="6" width="180" height="36" fill="#334155"/><text x="100" y="214" fill="white" font-size="13" text-anchor="middle">👨‍⚕️ Doctors</text>
  <rect x="10" y="236" rx="6" ry="6" width="180" height="36" fill="#334155"/><text x="100" y="258" fill="white" font-size="13" text-anchor="middle">📅 Appointments</text>
  <rect x="10" y="280" rx="6" ry="6" width="180" height="36" fill="#334155"/><text x="100" y="302" fill="white" font-size="13" text-anchor="middle">💊 Prescriptions</text>
  <rect x="10" y="324" rx="6" ry="6" width="180" height="36" fill="#0d6efd"/><text x="100" y="346" fill="white" font-size="13" text-anchor="middle">📋 Medical Records</text>
  <rect x="10" y="368" rx="6" ry="6" width="180" height="36" fill="#334155"/><text x="100" y="390" fill="white" font-size="13" text-anchor="middle">🧪 Labs</text>
  <rect x="10" y="412" rx="6" ry="6" width="180" height="36" fill="#334155"/><text x="100" y="434" fill="white" font-size="13" text-anchor="middle">📁 Files</text>
  <rect x="10" y="456" rx="6" ry="6" width="180" height="36" fill="#334155"/><text x="100" y="478" fill="white" font-size="13" text-anchor="middle">💳 Payments</text>
  <text x="100" y="520" fill="#94a3b8" font-size="11" font-weight="600" text-anchor="middle">AI TOOLS</text>
  <rect x="10" y="534" rx="6" ry="6" width="180" height="36" fill="#334155"/><text x="100" y="556" fill="white" font-size="13" text-anchor="middle">🔍 AI Checker</text>
  <rect x="10" y="578" rx="6" ry="6" width="180" height="36" fill="#334155"/><text x="100" y="600" fill="white" font-size="13" text-anchor="middle">🤖 AI Chat</text>

  <!-- Main content -->
  <rect x="220" y="72" rx="10" ry="10" width="860" height="55" fill="white" filter="url(#shadow)"/>
  <text x="240" y="96" fill="#1e293b" font-size="20" font-weight="700">📋 Medical Records</text>
  <text x="240" y="116" fill="#64748b" font-size="12">View and manage patient medical history and clinical notes</text>

  <rect x="940" y="80" rx="8" ry="8" width="125" height="36" fill="url(#sucGrad)"/>
  <text x="1002" y="103" fill="white" font-size="13" font-weight="600" text-anchor="middle">+ New Record</text>

  <!-- Records list -->
  <rect x="220" y="140" rx="10" ry="10" width="860" height="560" fill="white" filter="url(#shadow)"/>

  <!-- Record 1 -->
  <rect x="240" y="160" rx="8" ry="8" width="820" height="90" fill="#f8fafc" stroke="#e2e8f0" stroke-width="1"/>
  <text x="260" y="182" fill="#1e293b" font-size="14" font-weight="600">John Smith — Annual Checkup</text>
  <rect x="480" y="170" rx="4" ry="4" width="60" height="20" fill="#dbeafe"/>
  <text x="510" y="184" fill="#1e40af" font-size="10" text-anchor="middle">Completed</text>
  <text x="260" y="202" fill="#64748b" font-size="12">Dr. Sarah Lee · June 15, 2025</text>
  <text x="260" y="220" fill="#64748b" font-size="11">Blood pressure: 120/80 | Heart rate: 72 bpm | Weight: 78 kg | All findings normal</text>
  <rect x="980" y="180" rx="4" ry="4" width="65" height="26" fill="#0d6efd"/>
  <text x="1012" y="197" fill="white" font-size="11" text-anchor="middle">View Details</text>

  <!-- Record 2 -->
  <rect x="240" y="264" rx="8" ry="8" width="820" height="90" fill="#f8fafc" stroke="#e2e8f0" stroke-width="1"/>
  <text x="260" y="286" fill="#1e293b" font-size="14" font-weight="600">Emily Davis — Diabetes Follow-up</text>
  <rect x="540" y="274" rx="4" ry="4" width="60" height="20" fill="#dbeafe"/>
  <text x="570" y="288" fill="#1e40af" font-size="10" text-anchor="middle">Completed</text>
  <text x="260" y="306" fill="#64748b" font-size="12">Dr. Mark Chen · June 14, 2025</text>
  <text x="260" y="324" fill="#64748b" font-size="11">HbA1c: 7.2 | Fasting glucose: 126 | Medication adjusted | Referred to dietitian</text>
  <rect x="980" y="284" rx="4" ry="4" width="65" height="26" fill="#0d6efd"/>
  <text x="1012" y="301" fill="white" font-size="11" text-anchor="middle">View Details</text>

  <!-- Record 3 -->
  <rect x="240" y="368" rx="8" ry="8" width="820" height="90" fill="#f8fafc" stroke="#e2e8f0" stroke-width="1"/>
  <text x="260" y="390" fill="#1e293b" font-size="14" font-weight="600">Robert Wilson — Cardiac Evaluation</text>
  <rect x="520" y="378" rx="4" ry="4" width="70" height="20" fill="#fef3c7"/>
  <text x="555" y="392" fill="#92400e" font-size="10" text-anchor="middle">In Progress</text>
  <text x="260" y="410" fill="#64748b" font-size="12">Dr. Anna Patel · June 13, 2025</text>
  <text x="260" y="428" fill="#64748b" font-size="11">ECG: Sinus rhythm | Cholesterol: 240 | Stress test scheduled | Cardiology follow-up</text>
  <rect x="980" y="388" rx="4" ry="4" width="65" height="26" fill="#0d6efd"/>
  <text x="1012" y="405" fill="white" font-size="11" text-anchor="middle">View Details</text>

  <!-- Record 4 -->
  <rect x="240" y="472" rx="8" ry="8" width="820" height="90" fill="#f8fafc" stroke="#e2e8f0" stroke-width="1"/>
  <text x="260" y="494" fill="#1e293b" font-size="14" font-weight="600">Sarah Johnson — Respiratory Assessment</text>
  <rect x="530" y="482" rx="4" ry="4" width="60" height="20" fill="#dbeafe"/>
  <text x="560" y="496" fill="#1e40af" font-size="10" text-anchor="middle">Completed</text>
  <text x="260" y="514" fill="#64748b" font-size="12">Dr. James Brown · June 12, 2025</text>
  <text x="260" y="532" fill="#64748b" font-size="11">Spirometry: FEV1 85% | Oxygen saturation: 98% | Inhaler technique reviewed</text>
  <rect x="980" y="492" rx="4" ry="4" width="65" height="26" fill="#0d6efd"/>
  <text x="1012" y="509" fill="white" font-size="11" text-anchor="middle">View Details</text>

  <!-- Record 5 -->
  <rect x="240" y="576" rx="8" ry="8" width="820" height="90" fill="#f8fafc" stroke="#e2e8f0" stroke-width="1"/>
  <text x="260" y="598" fill="#1e293b" font-size="14" font-weight="600">Michael Brown — Mental Health Review</text>
  <rect x="510" y="586" rx="4" ry="4" width="70" height="20" fill="#fef3c7"/>
  <text x="545" y="600" fill="#92400e" font-size="10" text-anchor="middle">In Progress</text>
  <text x="260" y="618" fill="#64748b" font-size="12">Dr. Emily White · June 11, 2025</text>
  <text x="260" y="636" fill="#64748b" font-size="11">PHQ-9: 12 (moderate depression) | GAD-7: 8 | Therapy continued | Medication adjusted</text>
  <rect x="980" y="596" rx="4" ry="4" width="65" height="26" fill="#0d6efd"/>
  <text x="1012" y="613" fill="white" font-size="11" text-anchor="middle">View Details</text>

  <!-- Pagination -->
  <rect x="500" y="672" rx="4" ry="4" width="30" height="28" fill="#0d6efd"/>
  <text x="515" y="691" fill="white" font-size="12" text-anchor="middle">1</text>
  <rect x="538" y="672" rx="4" ry="4" width="30" height="28" fill="#f1f5f9"/>
  <text x="553" y="691" fill="#1e293b" font-size="12" text-anchor="middle">2</text>
  <rect x="576" y="672" rx="4" ry="4" width="30" height="28" fill="#f1f5f9"/>
  <text x="591" y="691" fill="#1e293b" font-size="12" text-anchor="middle">3</text>
  <rect x="614" y="672" rx="4" ry="4" width="60" height="28" fill="#f1f5f9"/>
  <text x="644" y="691" fill="#1e293b" font-size="12" text-anchor="middle">Next →</text>
</svg>