<svg xmlns="http://www.w3.org/2000/svg" viewBox="0 0 1100 750" font-family="'Segoe UI','Inter',sans-serif">
  <defs>
    <linearGradient id="heroGrad" x1="0%" y1="0%" x2="100%" y2="100%">
      <stop offset="0%" stop-color="#0d6efd"/><stop offset="100%" stop-color="#0a58ca"/>
    </linearGradient>
    <linearGradient id="sucGrad" x1="0%" y1="0%" x2="100%" y2="100%">
      <stop offset="0%" stop-color="#198754"/><stop offset="100%" stop-color="#157347"/>
    </linearGradient>
    <linearGradient id="warnGrad" x1="0%" y1="0%" x2="100%" y2="100%">
      <stop offset="0%" stop-color="#ffc107"/><stop offset="100%" stop-color="#ffca2c"/>
    </linearGradient>
    <filter id="shadow"><feDropShadow dx="0" dy="4" stdDeviation="8" flood-color="#000" flood-opacity="0.1"/></filter>
  </defs>
  <rect width="1100" height="750" fill="#f8f9fa"/>

  <!-- Navbar -->
  <rect width="1100" height="56" fill="#212529"/>
  <text x="24" y="36" fill="white" font-size="20" font-weight="700">🏥 MediAI Nexus</text>
  <rect x="900" y="14" rx="4" ry="4" width="60" height="28" fill="#0d6efd"/><text x="930" y="33" fill="white" font-size="12" text-anchor="middle">Dashboard</text>
  <rect x="968" y="14" rx="4" ry="4" width="60" height="28" fill="#198754"/><text x="998" y="33" fill="white" font-size="12" text-anchor="middle">Profile</text>
  <rect x="1036" y="14" rx="4" ry="4" width="50" height="28" fill="#dc3545"/><text x="1061" y="33" fill="white" font-size="12" text-anchor="middle">Logout</text>

  <!-- Sidebar -->
  <rect x="0" y="56" width="200" height="694" fill="#1e293b"/>
  <text x="100" y="90" fill="#94a3b8" font-size="11" font-weight="600" text-anchor="middle">NAVIGATION</text>
  <rect x="10" y="104" rx="6" ry="6" width="180" height="36" fill="#334155"/><text x="100" y="126" fill="white" font-size="13" text-anchor="middle">📊 Dashboard</text>
  <rect x="10" y="148" rx="6" ry="6" width="180" height="36" fill="#334155"/><text x="100" y="170" fill="white" font-size="13" text-anchor="middle">👤 Patients</text>
  <rect x="10" y="192" rx="6" ry="6" width="180" height="36" fill="#334155"/><text x="100" y="214" fill="white" font-size="13" text-anchor="middle">👨‍⚕️ Doctors</text>
  <rect x="10" y="236" rx="6" ry="6" width="180" height="36" fill="#334155"/><text x="100" y="258" fill="white" font-size="13" text-anchor="middle">📅 Appointments</text>
  <rect x="10" y="280" rx="6" ry="6" width="180" height="36" fill="#334155"/><text x="100" y="302" fill="white" font-size="13" text-anchor="middle">💊 Prescriptions</text>
  <rect x="10" y="324" rx="6" ry="6" width="180" height="36" fill="#334155"/><text x="100" y="346" fill="white" font-size="13" text-anchor="middle">📋 Medical Records</text>
  <rect x="10" y="368" rx="6" ry="6" width="180" height="36" fill="#334155"/><text x="100" y="390" fill="white" font-size="13" text-anchor="middle">🧪 Labs</text>
  <rect x="10" y="412" rx="6" ry="6" width="180" height="36" fill="#334155"/><text x="100" y="434" fill="white" font-size="13" text-anchor="middle">📁 Files</text>
  <rect x="10" y="456" rx="6" ry="6" width="180" height="36" fill="#0d6efd"/><text x="100" y="478" fill="white" font-size="13" text-anchor="middle">💳 Payments</text>
  <text x="100" y="520" fill="#94a3b8" font-size="11" font-weight="600" text-anchor="middle">AI TOOLS</text>
  <rect x="10" y="534" rx="6" ry="6" width="180" height="36" fill="#334155"/><text x="100" y="556" fill="white" font-size="13" text-anchor="middle">🔍 AI Checker</text>
  <rect x="10" y="578" rx="6" ry="6" width="180" height="36" fill="#334155"/><text x="100" y="600" fill="white" font-size="13" text-anchor="middle">🤖 AI Chat</text>

  <!-- Main content -->
  <rect x="220" y="72" rx="10" ry="10" width="860" height="55" fill="white" filter="url(#shadow)"/>
  <text x="240" y="96" fill="#1e293b" font-size="20" font-weight="700">💳 Payment & Billing Management</text>
  <text x="240" y="116" fill="#64748b" font-size="12">Track payments, bills, and transactions</text>

  <rect x="940" y="80" rx="8" ry="8" width="125" height="36" fill="url(#sucGrad)"/>
  <text x="1002" y="103" fill="white" font-size="13" font-weight="600" text-anchor="middle">+ New Payment</text>

  <!-- Stats cards -->
  <rect x="220" y="140" rx="8" ry="8" width="200" height="70" fill="white" filter="url(#shadow)"/>
  <text x="320" y="164" fill="#1e293b" font-size="20" font-weight="700" text-anchor="middle">$45,250</text>
  <text x="320" y="184" fill="#64748b" font-size="11" text-anchor="middle">Total Revenue</text>

  <rect x="440" y="140" rx="8" ry="8" width="200" height="70" fill="white" filter="url(#shadow)"/>
  <text x="540" y="164" fill="#1e293b" font-size="20" font-weight="700" text-anchor="middle">$38,100</text>
  <text x="540" y="184" fill="#64748b" font-size="11" text-anchor="middle">Collected</text>

  <rect x="660" y="140" rx="8" ry="8" width="200" height="70" fill="white" filter="url(#shadow)"/>
  <text x="760" y="164" fill="#dc3545" font-size="20" font-weight="700" text-anchor="middle">$7,150</text>
  <text x="760" y="184" fill="#64748b" font-size="11" text-anchor="middle">Pending</text>

  <rect x="880" y="140" rx="8" ry="8" width="200" height="70" fill="white" filter="url(#shadow)"/>
  <text x="980" y="164" fill="#1e293b" font-size="20" font-weight="700" text-anchor="middle">156</text>
  <text x="980" y="184" fill="#64748b" font-size="11" text-anchor="middle">Transactions</text>

  <!-- Payments table -->
  <rect x="220" y="225" rx="10" ry="10" width="860" height="480" fill="white" filter="url(#shadow)"/>

  <rect x="235" y="240" rx="6" ry="6" width="830" height="36" fill="#f8fafc"/>
  <text x="260" y="262" fill="#475569" font-size="12" font-weight="600">Invoice #</text>
  <text x="380" y="262" fill="#475569" font-size="12" font-weight="600">Patient</text>
  <text x="520" y="262" fill="#475569" font-size="12" font-weight="600">Description</text>
  <text x="700" y="262" fill="#475569" font-size="12" font-weight="600">Amount</text>
  <text x="810" y="262" fill="#475569" font-size="12" font-weight="600">Status</text>
  <text x="950" y="262" fill="#475569" font-size="12" font-weight="600">Actions</text>

  <!-- Row 1 -->
  <line x1="240" y1="285" x2="1060" y2="285" stroke="#f1f5f9" stroke-width="1"/>
  <text x="260" y="307" fill="#1e293b" font-size="12">INV-001</text>
  <text x="380" y="307" fill="#1e293b" font-size="12">John Smith</text>
  <text x="520" y="307" fill="#1e293b" font-size="12">General Checkup</text>
  <text x="700" y="307" fill="#1e293b" font-size="12">$350.00</text>
  <rect x="795" y="296" rx="4" ry="4" width="65" height="22" fill="#dcfce7"/>
  <text x="827" y="311" fill="#166534" font-size="10" text-anchor="middle">Paid</text>
  <rect x="950" y="296" rx="4" ry="4" width="55" height="22" fill="#0d6efd"/>
  <text x="977" y="311" fill="white" font-size="10" text-anchor="middle">View</text>

  <!-- Row 2 -->
  <line x1="240" y1="325" x2="1060" y2="325" stroke="#f1f5f9" stroke-width="1"/>
  <text x="260" y="347" fill="#1e293b" font-size="12">INV-002</text>
  <text x="380" y="347" fill="#1e293b" font-size="12">Emily Davis</text>
  <text x="520" y="347" fill="#1e293b" font-size="12">Diabetes Consultation</text>
  <text x="700" y="347" fill="#1e293b" font-size="12">$250.00</text>
  <rect x="795" y="336" rx="4" ry="4" width="65" height="22" fill="#fef3c7"/>
  <text x="827" y="351" fill="#92400e" font-size="10" text-anchor="middle">Pending</text>
  <rect x="950" y="336" rx="4" ry="4" width="55" height="22" fill="#0d6efd"/>
  <text x="977" y="351" fill="white" font-size="10" text-anchor="middle">View</text>

  <!-- Row 3 -->
  <line x1="240" y1="365" x2="1060" y2="365" stroke="#f1f5f9" stroke-width="1"/>
  <text x="260" y="387" fill="#1e293b" font-size="12">INV-003</text>
  <text x="380" y="387" fill="#1e293b" font-size="12">Robert Wilson</text>
  <text x="520" y="387" fill="#1e293b" font-size="12">Cardiac Tests</text>
  <text x="700" y="387" fill="#1e293b" font-size="12">$1,200.00</text>
  <rect x="795" y="376" rx="4" ry="4" width="65" height="22" fill="#fee2e2"/>
  <text x="827" y="391" fill="#991b1b" font-size="10" text-anchor="middle">Overdue</text>
  <rect x="950" y="376" rx="4" ry="4" width="55" height="22" fill="#0d6efd"/>
  <text x="977" y="391" fill="white" font-size="10" text-anchor="middle">View</text>

  <!-- Row 4 -->
  <line x1="240" y1="405" x2="1060" y2="405" stroke="#f1f5f9" stroke-width="1"/>
  <text x="260" y="427" fill="#1e293b" font-size="12">INV-004</text>
  <text x="380" y="427" fill="#1e293b" font-size="12">Sarah Johnson</text>
  <text x="520" y="427" fill="#1e293b" font-size="12">Respiratory Tests</text>
  <text x="700" y="427" fill="#1e293b" font-size="12">$450.00</text>
  <rect x="795" y="416" rx="4" ry="4" width="65" height="22" fill="#dcfce7"/>
  <text x="827" y="431" fill="#166534" font-size="10" text-anchor="middle">Paid</text>
  <rect x="950" y="416" rx="4" ry="4" width="55" height="22" fill="#0d6efd"/>
  <text x="977" y="431" fill="white" font-size="10" text-anchor="middle">View</text>

  <!-- Row 5 -->
  <line x1="240" y1="445" x2="1060" y2="445" stroke="#f1f5f9" stroke-width="1"/>
  <text x="260" y="467" fill="#1e293b" font-size="12">INV-005</text>
  <text x="380" y="467" fill="#1e293b" font-size="12">Michael Brown</text>
  <text x="520" y="467" fill="#1e293b" font-size="12">Therapy Session</text>
  <text x="700" y="467" fill="#1e293b" font-size="12">$180.00</text>
  <rect x="795" y="456" rx="4" ry="4" width="65" height="22" fill="#dcfce7"/>
  <text x="827" y="471" fill="#166534" font-size="10" text-anchor="middle">Paid</text>
  <rect x="950" y="456" rx="4" ry="4" width="55" height="22" fill="#0d6efd"/>
  <text x="977" y="471" fill="white" font-size="10" text-anchor="middle">View</text>

  <!-- Pagination -->
  <rect x="500" y="500" rx="4" ry="4" width="30" height="28" fill="#0d6efd"/>
  <text x="515" y="519" fill="white" font-size="12" text-anchor="middle">1</text>
  <rect x="538" y="500" rx="4" ry="4" width="30" height="28" fill="#f1f5f9"/>
  <text x="553" y="519" fill="#1e293b" font-size="12" text-anchor="middle">2</text>
  <rect x="576" y="500" rx="4" ry="4" width="30" height="28" fill="#f1f5f9"/>
  <text x="591" y="519" fill="#1e293b" font-size="12" text-anchor="middle">3</text>
  <rect x="614" y="500" rx="4" ry="4" width="60" height="28" fill="#f1f5f9"/>
  <text x="644" y="519" fill="#1e293b" font-size="12" text-anchor="middle">Next →</text>
</svg>