<svg xmlns="http://www.w3.org/2000/svg" viewBox="0 0 1100 750" font-family="'Segoe UI','Inter',sans-serif">
  <defs>
    <linearGradient id="heroGrad" x1="0%" y1="0%" x2="100%" y2="100%">
      <stop offset="0%" stop-color="#0d6efd"/><stop offset="100%" stop-color="#0a58ca"/>
    </linearGradient>
    <linearGradient id="sucGrad" x1="0%" y1="0%" x2="100%" y2="100%">
      <stop offset="0%" stop-color="#198754"/><stop offset="100%" stop-color="#157347"/>
    </linearGradient>
    <linearGradient id="warnGrad" x1="0%" y1="0%" x2="100%" y2="100%">
      <stop offset="0%" stop-color="#ffc107"/><stop offset="100%" stop-color="#ffca2c"/>
    </linearGradient>
    <filter id="shadow"><feDropShadow dx="0" dy="4" stdDeviation="8" flood-color="#000" flood-opacity="0.1"/></filter>
  </defs>
  <rect width="1100" height="750" fill="#f8f9fa"/>

  <!-- Navbar -->
  <rect width="1100" height="56" fill="#212529"/>
  <text x="24" y="36" fill="white" font-size="20" font-weight="700">🏥 MediAI Nexus</text>
  <rect x="900" y="14" rx="4" ry="4" width="60" height="28" fill="#0d6efd"/><text x="930" y="33" fill="white" font-size="12" text-anchor="middle">Dashboard</text>
  <rect x="968" y="14" rx="4" ry="4" width="60" height="28" fill="#198754"/><text x="998" y="33" fill="white" font-size="12" text-anchor="middle">Profile</text>
  <rect x="1036" y="14" rx="4" ry="4" width="50" height="28" fill="#dc3545"/><text x="1061" y="33" fill="white" font-size="12" text-anchor="middle">Logout</text>

  <!-- Sidebar -->
  <rect x="0" y="56" width="200" height="694" fill="#1e293b"/>
  <text x="100" y="90" fill="#94a3b8" font-size="11" font-weight="600" text-anchor="middle">NAVIGATION</text>
  <rect x="10" y="104" rx="6" ry="6" width="180" height="36" fill="#334155"/>
  <text x="100" y="126" fill="white" font-size="13" text-anchor="middle">📊 Dashboard</text>
  <rect x="10" y="148" rx="6" ry="6" width="180" height="36" fill="#334155"/>
  <text x="100" y="170" fill="white" font-size="13" text-anchor="middle">👤 Patients</text>
  <rect x="10" y="192" rx="6" ry="6" width="180" height="36" fill="#334155"/>
  <text x="100" y="214" fill="white" font-size="13" text-anchor="middle">👨‍⚕️ Doctors</text>
  <rect x="10" y="236" rx="6" ry="6" width="180" height="36" fill="#334155"/>
  <text x="100" y="258" fill="white" font-size="13" text-anchor="middle">📅 Appointments</text>
  <rect x="10" y="280" rx="6" ry="6" width="180" height="36" fill="#0d6efd"/>
  <text x="100" y="302" fill="white" font-size="13" text-anchor="middle">💊 Prescriptions</text>
  <rect x="10" y="324" rx="6" ry="6" width="180" height="36" fill="#334155"/>
  <text x="100" y="346" fill="white" font-size="13" text-anchor="middle">📋 Medical Records</text>
  <rect x="10" y="368" rx="6" ry="6" width="180" height="36" fill="#334155"/>
  <text x="100" y="390" fill="white" font-size="13" text-anchor="middle">🧪 Labs</text>
  <rect x="10" y="412" rx="6" ry="6" width="180" height="36" fill="#334155"/>
  <text x="100" y="434" fill="white" font-size="13" text-anchor="middle">📁 Files</text>
  <rect x="10" y="456" rx="6" ry="6" width="180" height="36" fill="#334155"/>
  <text x="100" y="478" fill="white" font-size="13" text-anchor="middle">💳 Payments</text>

  <text x="100" y="520" fill="#94a3b8" font-size="11" font-weight="600" text-anchor="middle">AI TOOLS</text>
  <rect x="10" y="534" rx="6" ry="6" width="180" height="36" fill="#334155"/>
  <text x="100" y="556" fill="white" font-size="13" text-anchor="middle">🔍 AI Checker</text>
  <rect x="10" y="578" rx="6" ry="6" width="180" height="36" fill="#334155"/>
  <text x="100" y="600" fill="white" font-size="13" text-anchor="middle">🤖 AI Chat</text>
  <rect x="10" y="622" rx="6" ry="6" width="180" height="36" fill="#334155"/>
  <text x="100" y="644" fill="white" font-size="13" text-anchor="middle">📝 AI Summary</text>

  <!-- Main content -->
  <rect x="220" y="72" rx="10" ry="10" width="860" height="55" fill="white" filter="url(#shadow)"/>
  <text x="240" y="96" fill="#1e293b" font-size="20" font-weight="700">💊 Prescription Management</text>
  <text x="240" y="116" fill="#64748b" font-size="12">Manage patient prescriptions and medication records</text>

  <!-- Create Prescription button -->
  <rect x="940" y="80" rx="8" ry="8" width="125" height="36" fill="url(#sucGrad)"/>
  <text x="1002" y="103" fill="white" font-size="13" font-weight="600" text-anchor="middle">+ New Prescription</text>

  <!-- Filter row -->
  <rect x="220" y="140" rx="8" ry="8" width="860" height="45" fill="white" filter="url(#shadow)"/>
  <rect x="240" y="152" rx="6" ry="6" width="160" height="24" fill="#f1f5f9" stroke="#cbd5e1" stroke-width="1"/>
  <text x="250" y="169" fill="#64748b" font-size="11">Search prescriptions...</text>
  <rect x="420" y="152" rx="6" ry="6" width="130" height="24" fill="#f1f5f9" stroke="#cbd5e1" stroke-width="1"/>
  <text x="430" y="169" fill="#64748b" font-size="11">Filter by patient...</text>
  <rect x="570" y="152" rx="6" ry="6" width="130" height="24" fill="#f1f5f9" stroke="#cbd5e1" stroke-width="1"/>
  <text x="580" y="169" fill="#64748b" font-size="11">Filter by doctor...</text>

  <!-- Prescriptions table -->
  <rect x="220" y="200" rx="10" ry="10" width="860" height="500" fill="white" filter="url(#shadow)"/>

  <!-- Table header -->
  <rect x="235" y="215" rx="6" ry="6" width="830" height="36" fill="#f8fafc"/>
  <text x="260" y="237" fill="#475569" font-size="12" font-weight="600">ID</text>
  <text x="360" y="237" fill="#475569" font-size="12" font-weight="600">Patient</text>
  <text x="510" y="237" fill="#475569" font-size="12" font-weight="600">Doctor</text>
  <text x="660" y="237" fill="#475569" font-size="12" font-weight="600">Medications</text>
  <text x="820" y="237" fill="#475569" font-size="12" font-weight="600">Date</text>
  <text x="960" y="237" fill="#475569" font-size="12" font-weight="600">Actions</text>

  <!-- Row 1 -->
  <line x1="240" y1="260" x2="1060" y2="260" stroke="#f1f5f9" stroke-width="1"/>
  <text x="260" y="282" fill="#1e293b" font-size="12">#PR-001</text>
  <text x="360" y="282" fill="#1e293b" font-size="12">John Smith</text>
  <text x="510" y="282" fill="#1e293b" font-size="12">Dr. Sarah Lee</text>
  <text x="660" y="282" fill="#1e293b" font-size="12">Amoxicillin, Ibuprofen</text>
  <text x="820" y="282" fill="#64748b" font-size="12">2025-06-15</text>
  <rect x="940" y="270" rx="4" ry="4" width="50" height="22" fill="#0d6efd"/>
  <text x="965" y="285" fill="white" font-size="10" text-anchor="middle">View</text>
  <rect x="1000" y="270" rx="4" ry="4" width="50" height="22" fill="#198754"/>
  <text x="1025" y="285" fill="white" font-size="10" text-anchor="middle">Edit</text>

  <!-- Row 2 -->
  <line x1="240" y1="300" x2="1060" y2="300" stroke="#f1f5f9" stroke-width="1"/>
  <text x="260" y="322" fill="#1e293b" font-size="12">#PR-002</text>
  <text x="360" y="322" fill="#1e293b" font-size="12">Emily Davis</text>
  <text x="510" y="322" fill="#1e293b" font-size="12">Dr. Mark Chen</text>
  <text x="660" y="322" fill="#1e293b" font-size="12">Metformin, Glipizide</text>
  <text x="820" y="322" fill="#64748b" font-size="12">2025-06-14</text>
  <rect x="940" y="310" rx="4" ry="4" width="50" height="22" fill="#0d6efd"/>
  <text x="965" y="325" fill="white" font-size="10" text-anchor="middle">View</text>
  <rect x="1000" y="310" rx="4" ry="4" width="50" height="22" fill="#198754"/>
  <text x="1025" y="325" fill="white" font-size="10" text-anchor="middle">Edit</text>

  <!-- Row 3 -->
  <line x1="240" y1="340" x2="1060" y2="340" stroke="#f1f5f9" stroke-width="1"/>
  <text x="260" y="362" fill="#1e293b" font-size="12">#PR-003</text>
  <text x="360" y="362" fill="#1e293b" font-size="12">Robert Wilson</text>
  <text x="510" y="362" fill="#1e293b" font-size="12">Dr. Anna Patel</text>
  <text x="660" y="362" fill="#1e293b" font-size="12">Lisinopril, Atorvastatin</text>
  <text x="820" y="362" fill="#64748b" font-size="12">2025-06-13</text>
  <rect x="940" y="350" rx="4" ry="4" width="50" height="22" fill="#0d6efd"/>
  <text x="965" y="365" fill="white" font-size="10" text-anchor="middle">View</text>
  <rect x="1000" y="350" rx="4" ry="4" width="50" height="22" fill="#198754"/>
  <text x="1025" y="365" fill="white" font-size="10" text-anchor="middle">Edit</text>

  <!-- Row 4 -->
  <line x1="240" y1="380" x2="1060" y2="380" stroke="#f1f5f9" stroke-width="1"/>
  <text x="260" y="402" fill="#1e293b" font-size="12">#PR-004</text>
  <text x="360" y="402" fill="#1e293b" font-size="12">Sarah Johnson</text>
  <text x="510" y="402" fill="#1e293b" font-size="12">Dr. James Brown</text>
  <text x="660" y="402" fill="#1e293b" font-size="12">Albuterol, Montelukast</text>
  <text x="820" y="402" fill="#64748b" font-size="12">2025-06-12</text>
  <rect x="940" y="390" rx="4" ry="4" width="50" height="22" fill="#0d6efd"/>
  <text x="965" y="405" fill="white" font-size="10" text-anchor="middle">View</text>
  <rect x="1000" y="390" rx="4" ry="4" width="50" height="22" fill="#198754"/>
  <text x="1025" y="405" fill="white" font-size="10" text-anchor="middle">Edit</text>

  <!-- Row 5 -->
  <line x1="240" y1="420" x2="1060" y2="420" stroke="#f1f5f9" stroke-width="1"/>
  <text x="260" y="442" fill="#1e293b" font-size="12">#PR-005</text>
  <text x="360" y="442" fill="#1e293b" font-size="12">Michael Brown</text>
  <text x="510" y="442" fill="#1e293b" font-size="12">Dr. Emily White</text>
  <text x="660" y="442" fill="#1e293b" font-size="12">Sertraline, Diazepam</text>
  <text x="820" y="442" fill="#64748b" font-size="12">2025-06-11</text>
  <rect x="940" y="430" rx="4" ry="4" width="50" height="22" fill="#0d6efd"/>
  <text x="965" y="445" fill="white" font-size="10" text-anchor="middle">View</text>
  <rect x="1000" y="430" rx="4" ry="4" width="50" height="22" fill="#198754"/>
  <text x="1025" y="445" fill="white" font-size="10" text-anchor="middle">Edit</text>

  <!-- Pagination -->
  <rect x="500" y="640" rx="4" ry="4" width="30" height="28" fill="#0d6efd"/>
  <text x="515" y="659" fill="white" font-size="12" text-anchor="middle">1</text>
  <rect x="538" y="640" rx="4" ry="4" width="30" height="28" fill="#f1f5f9"/>
  <text x="553" y="659" fill="#1e293b" font-size="12" text-anchor="middle">2</text>
  <rect x="576" y="640" rx="4" ry="4" width="30" height="28" fill="#f1f5f9"/>
  <text x="591" y="659" fill="#1e293b" font-size="12" text-anchor="middle">3</text>
  <rect x="614" y="640" rx="4" ry="4" width="60" height="28" fill="#f1f5f9"/>
  <text x="644" y="659" fill="#1e293b" font-size="12" text-anchor="middle">Next →</text>

  <text x="260" y="690" fill="#64748b" font-size="12">Showing 5 of 25 prescriptions</text>
</svg>